<svg width="16" height="16" viewBox="0 0 16 16" fill="none" xmlns="http://www.w3.org/2000/svg">
<g clip-path="url(#clip0_2502_77483)">
<path d="M13.9221 8.57146H4.57352L3.43066 2.85718H14.8592C14.9429 2.85749 15.0253 2.87611 15.1009 2.91177C15.1765 2.94742 15.2433 2.99922 15.2967 3.06352C15.3502 3.12781 15.3888 3.20304 15.4099 3.28389C15.4311 3.36474 15.4343 3.44925 15.4192 3.53146L14.4821 8.10289C14.4602 8.23506 14.3917 8.35503 14.2889 8.441C14.1862 8.52697 14.056 8.57326 13.9221 8.57146Z" stroke="black" stroke-linecap="round" stroke-linejoin="round"/>
<path d="M3.43069 2.85725L2.95069 1.02868C2.92435 0.899606 2.85421 0.783602 2.75216 0.700298C2.65012 0.616994 2.52243 0.571506 2.39069 0.571533H0.573547" stroke="black" stroke-linecap="round" stroke-linejoin="round"/>
<path d="M4.57355 8.57153L5.05355 10.9715C5.07989 11.1006 5.15003 11.2166 5.25207 11.2999C5.35412 11.3832 5.48182 11.4287 5.61355 11.4287H12.5735" stroke="black" stroke-linecap="round" stroke-linejoin="round"/>
<path d="M12.0021 15.4287C11.6865 15.4287 11.4307 15.1729 11.4307 14.8573C11.4307 14.5418 11.6865 14.2859 12.0021 14.2859C12.3178 14.2859 12.5735 14.5418 12.5735 14.8573C12.5735 15.1729 12.3178 15.4287 12.0021 15.4287Z" stroke="black" stroke-linecap="round" stroke-linejoin="round"/>
<path d="M6.28786 15.4287C5.97227 15.4287 5.71643 15.1729 5.71643 14.8573C5.71643 14.5418 5.97227 14.2859 6.28786 14.2859C6.60345 14.2859 6.85929 14.5418 6.85929 14.8573C6.85929 15.1729 6.60345 15.4287 6.28786 15.4287Z" stroke="black" stroke-linecap="round" stroke-linejoin="round"/>
</g>
<defs>
<clipPath id="clip0_2502_77483">
<rect width="16" height="16" fill="white"/>
</clipPath>
</defs>
</svg>
