<svg width="14" height="14" viewBox="0 0 14 14" fill="none" xmlns="http://www.w3.org/2000/svg">
<g clip-path="url(#clip0_2345_314732)">
<path d="M1.0461 5.81445H3.39738V12.0746H1.0461C0.914538 12.0746 0.788366 12.0224 0.695339 11.9293C0.602311 11.8363 0.550049 11.7101 0.550049 11.5786V6.3105C0.550049 6.17894 0.602311 6.05277 0.695339 5.95974C0.788366 5.86672 0.914538 5.81445 1.0461 5.81445Z" stroke="black" stroke-linecap="round" stroke-linejoin="round"/>
<path d="M3.39734 5.81407L5.91727 1.78614C6.01493 1.62694 6.15216 1.49574 6.31559 1.40533C6.47902 1.31492 6.66309 1.26839 6.84985 1.27025C6.99694 1.26494 7.1436 1.28917 7.28116 1.34151C7.41873 1.39385 7.5444 1.47323 7.65077 1.57497C7.75713 1.67671 7.84202 1.79873 7.90041 1.93384C7.95881 2.06894 7.98953 2.21438 7.99076 2.36156V5.24857H12.3461C12.507 5.25379 12.665 5.29301 12.8097 5.36367C12.9544 5.43432 13.0825 5.53479 13.1856 5.65849C13.2887 5.78219 13.3644 5.9263 13.4078 6.08136C13.4512 6.23642 13.4613 6.39891 13.4374 6.55814L12.6437 11.6774C12.6099 11.951 12.4772 12.2028 12.2708 12.3855C12.0644 12.5682 11.7983 12.6692 11.5226 12.6695H5.01446C4.70465 12.6707 4.39886 12.5994 4.12157 12.4611L3.40726 12.104" stroke="black" stroke-linecap="round" stroke-linejoin="round"/>
<path d="M3.39734 5.81445V12.0746" stroke="black" stroke-linecap="round" stroke-linejoin="round"/>
</g>
<defs>
<clipPath id="clip0_2345_314732">
<rect width="14" height="14" fill="white"/>
</clipPath>
</defs>
</svg>
