<svg width="48" height="48" viewBox="0 0 48 48" fill="none" xmlns="http://www.w3.org/2000/svg">
<path d="M25.12 44.521C23.006 45.683 23.096 43.972 23.187 43.445C23.241 43.131 23.487 41.658 23.487 41.658C23.557 41.124 23.631 40.298 23.42 39.771C23.185 39.191 22.254 38.889 21.57 38.742C11.48 37.415 4.01099 30.4 4.01099 22.025C4.01099 12.683 13.431 5.08203 25.006 5.08203C36.581 5.08203 46 12.683 46 22.025C46 32.517 34.872 39.159 25.12 44.521ZM18.369 25.845C18.369 25.285 17.91 24.83 17.346 24.83H14.49V18.152C14.49 17.592 14.031 17.137 13.467 17.137C12.902 17.137 12.444 17.592 12.444 18.152V25.846C12.444 26.407 12.903 26.862 13.467 26.862H17.346C17.91 26.863 18.369 26.406 18.369 25.845ZM21.357 18.152C21.357 17.592 20.898 17.137 20.334 17.137C19.769 17.137 19.311 17.592 19.311 18.152V25.846C19.311 26.407 19.77 26.862 20.334 26.862C20.899 26.862 21.357 26.406 21.357 25.846V18.152ZM30.697 18.152C30.697 17.592 30.238 17.137 29.674 17.137C29.109 17.137 28.649 17.592 28.649 18.152V22.913L24.671 17.544C24.479 17.29 24.172 17.138 23.853 17.138C23.743 17.138 23.634 17.154 23.528 17.19C23.109 17.329 22.828 17.716 22.828 18.153V25.847C22.828 26.408 23.288 26.863 23.853 26.863C24.419 26.863 24.878 26.407 24.878 25.847V21.088L28.854 26.457C29.046 26.711 29.352 26.863 29.672 26.863C29.781 26.863 29.891 26.845 29.997 26.81C30.417 26.673 30.697 26.286 30.697 25.847V18.152ZM36.975 20.984H34.119V19.167H36.975C37.541 19.167 38 18.712 38 18.152C38 17.592 37.54 17.137 36.975 17.137H33.096C32.531 17.137 32.073 17.592 32.073 18.152C32.073 18.153 32.073 18.153 32.073 18.155V21.997C32.073 21.997 32.073 21.998 32.073 21.999V25.844C32.073 26.405 32.533 26.86 33.096 26.86H36.975C37.54 26.86 38 26.404 38 25.844C38 25.284 37.54 24.829 36.975 24.829H34.119V23.012H36.975C37.541 23.012 38 22.557 38 21.997C38 21.436 37.54 20.981 36.975 20.981V20.984Z" fill="black"/>
</svg>
