<svg width="14" height="14" viewBox="0 0 14 14" fill="none" xmlns="http://www.w3.org/2000/svg">
<g clip-path="url(#clip0_2065_3206)">
<g clip-path="url(#clip1_2065_3206)">
<path d="M5.94227 1.10664C6.63885 0.539975 7.6375 0.539975 8.33409 1.10664L8.66687 1.37735L9.09043 1.3093C9.97702 1.16685 10.8419 1.66617 11.1618 2.50521L11.3147 2.90605L11.7155 3.05889C12.5545 3.37882 13.0539 4.24368 12.9114 5.13027L12.8433 5.55383L13.1141 5.88661C13.6807 6.5832 13.6807 7.58185 13.1141 8.27843L12.8433 8.61122L12.9114 9.03477C13.0539 9.92136 12.5545 10.7862 11.7155 11.1062L11.3147 11.259L11.1618 11.6598C10.8419 12.4989 9.97702 12.9982 9.09043 12.8557L8.66687 12.7877L8.33409 13.0584C7.6375 13.6251 6.63885 13.6251 5.94227 13.0584L5.60948 12.7877L5.18593 12.8557C4.29934 12.9982 3.43448 12.4989 3.11455 11.6598L2.9617 11.259L2.56087 11.1062C1.72183 10.7862 1.22251 9.92136 1.36496 9.03477L1.43301 8.61122L1.1623 8.27843C0.595638 7.58185 0.595638 6.5832 1.1623 5.88661L1.43301 5.55383L1.36496 5.13027C1.22251 4.24368 1.72183 3.37882 2.56087 3.05889L2.9617 2.90605L3.11455 2.50521C3.43448 1.66617 4.29934 1.16685 5.18593 1.3093L5.60948 1.37735L5.94227 1.10664Z" stroke="black" stroke-linecap="round" stroke-linejoin="round"/>
<path d="M8.57243 8.99903L7.94043 6.20703H8.54043L8.80443 7.54703L8.95243 8.32303H8.96443L9.14043 7.54703L9.44843 6.20703H10.1124L10.4244 7.54703L10.5964 8.32303H10.6084L10.7564 7.54703L11.0244 6.20703H11.6004L10.9524 8.99903H10.2604L9.90843 7.48703L9.77243 6.87503H9.76043L9.62043 7.48703L9.26843 8.99903H8.57243Z" fill="black"/>
<path d="M5.70264 8.99903V6.20703H7.60264V6.74703H6.31064V7.31903H7.41864V7.85503H6.31064V8.45903H7.60264V8.99903H5.70264Z" fill="black"/>
<path d="M3.66011 7.67903L3.39211 7.11903H3.38011V8.99903H2.80811V6.20703H3.47211L4.23611 7.52703L4.50411 8.08703H4.51611V6.20703H5.08811V8.99903H4.42411L3.66011 7.67903Z" fill="black"/>
</g>
</g>
<defs>
<clipPath id="clip0_2065_3206">
<rect width="14" height="14" fill="white"/>
</clipPath>
<clipPath id="clip1_2065_3206">
<rect width="14" height="14" fill="white" transform="translate(0.112305 0.107422)"/>
</clipPath>
</defs>
</svg>
