<svg width="48" height="48" viewBox="0 0 48 48" fill="none" xmlns="http://www.w3.org/2000/svg">
<g clip-path="url(#clip0_2531_152725)">
<path d="M22.32 44.8111C20.5427 45.9555 18.4271 46.4571 16.3251 46.2326C14.2231 46.008 12.2613 45.071 10.7658 43.5768L9.4629 42.2739C8.88505 41.6897 8.56091 40.9015 8.56091 40.0796C8.56091 39.2582 8.88505 38.4696 9.4629 37.8854L14.9486 32.434C15.5269 31.8582 16.3097 31.535 17.1258 31.535C17.9418 31.535 18.7246 31.8582 19.3029 32.434C19.887 33.0118 20.6755 33.336 21.4972 33.336C22.3188 33.336 23.1073 33.0118 23.6915 32.434L32.4343 23.6911C33.0122 23.107 33.3364 22.3185 33.3364 21.4968C33.3364 20.6752 33.0122 19.8867 32.4343 19.3025C31.8586 18.7242 31.5353 17.9414 31.5353 17.1254C31.5353 16.3094 31.8586 15.5265 32.4343 14.9482L37.7142 9.46254C38.2984 8.88465 39.087 8.56055 39.9085 8.56055C40.7303 8.56055 41.5189 8.88465 42.1028 9.46254L43.4056 10.7654C44.9265 12.2398 45.8958 14.1912 46.1516 16.294C46.4077 18.3967 45.9345 20.5236 44.8113 22.3197C38.8329 31.1955 31.1959 38.8327 22.32 44.8111Z" stroke="black" stroke-width="3.42857" stroke-linecap="round" stroke-linejoin="round"/>
<path d="M23.9999 1.71484C21.0733 1.71484 18.1754 2.29128 15.4716 3.41124C12.7677 4.53121 10.311 6.17278 8.24155 8.24219C6.1721 10.3116 4.53057 12.7684 3.4106 15.4722C2.29064 18.176 1.7142 21.074 1.7142 24.0006" stroke="black" stroke-width="3.42857" stroke-linecap="round" stroke-linejoin="round"/>
<path d="M23.9999 10.2871C20.3627 10.2871 16.8744 11.732 14.3025 14.3039C11.7305 16.8759 10.2856 20.3641 10.2856 24.0014" stroke="black" stroke-width="3.42857" stroke-linecap="round" stroke-linejoin="round"/>
</g>
<defs>
<clipPath id="clip0_2531_152725">
<rect width="48" height="48" fill="white"/>
</clipPath>
</defs>
</svg>
