<svg width="14" height="14" viewBox="0 0 14 14" fill="none" xmlns="http://www.w3.org/2000/svg">
<g clip-path="url(#clip0_2065_3186)">
<g clip-path="url(#clip1_2065_3186)">
<path d="M9.61235 9.5564L12.3224 6.84639C12.3611 6.80931 12.3912 6.76402 12.4102 6.71385C12.4292 6.66367 12.4368 6.60988 12.4324 6.55639L11.8424 2.71639C11.8355 2.62851 11.7974 2.54597 11.7351 2.48364C11.6728 2.4213 11.5902 2.38327 11.5024 2.37639L7.66236 1.78639C7.60887 1.78196 7.55508 1.78953 7.5049 1.80856C7.45473 1.82759 7.40944 1.8576 7.37236 1.89639L4.66235 4.6064" stroke="black" stroke-linecap="round" stroke-linejoin="round"/>
<path d="M3.30354 5.9668L0.862285 8.40805C0.721834 8.54867 0.642944 8.7393 0.642944 8.93805C0.642944 9.1368 0.721834 9.32742 0.862285 9.46805L4.75229 13.358C4.89291 13.4985 5.08354 13.5774 5.28229 13.5774C5.48104 13.5774 5.67166 13.4985 5.81229 13.358L8.25354 10.9168" stroke="black" stroke-linecap="round" stroke-linejoin="round"/>
<path d="M11.8623 2.35669L13.5823 0.636719" stroke="black" stroke-linecap="round" stroke-linejoin="round"/>
<path d="M9.35571 5.03711C9.21764 5.03711 9.10571 4.92518 9.10571 4.78711C9.10571 4.64904 9.21764 4.53711 9.35571 4.53711" stroke="black" stroke-linecap="round" stroke-linejoin="round"/>
<path d="M9.35571 5.03711C9.49378 5.03711 9.60571 4.92518 9.60571 4.78711C9.60571 4.64904 9.49378 4.53711 9.35571 4.53711" stroke="black" stroke-linecap="round" stroke-linejoin="round"/>
<path d="M13.6123 13.6074L0.612305 0.607422" stroke="black" stroke-linecap="round" stroke-linejoin="round"/>
</g>
</g>
<defs>
<clipPath id="clip0_2065_3186">
<rect width="14" height="14" fill="white"/>
</clipPath>
<clipPath id="clip1_2065_3186">
<rect width="14" height="14" fill="white" transform="translate(0.112305 0.107422)"/>
</clipPath>
</defs>
</svg>
