<svg width="32" height="32" viewBox="0 0 32 32" fill="none" xmlns="http://www.w3.org/2000/svg">
<g clip-path="url(#clip0_2502_77464)">
<path d="M15.9999 18.286C19.1558 18.286 21.7142 15.7276 21.7142 12.5717C21.7142 9.4158 19.1558 6.85742 15.9999 6.85742C12.844 6.85742 10.2856 9.4158 10.2856 12.5717C10.2856 15.7276 12.844 18.286 15.9999 18.286Z" fill="#0666B8" stroke="#0666B8" stroke-linecap="round" stroke-linejoin="round"/>
<path d="M6.23987 27.1994C7.25985 25.5252 8.69338 24.1414 10.4026 23.1814C12.1119 22.2211 14.0394 21.7168 15.9999 21.7168C17.9603 21.7168 19.8878 22.2211 21.5971 23.1814C23.3064 24.1414 24.7398 25.5252 25.7599 27.1994" fill="#0666B8"/>
<path d="M6.23987 27.1994C7.25985 25.5252 8.69338 24.1414 10.4026 23.1814C12.1119 22.2211 14.0394 21.7168 15.9999 21.7168C17.9603 21.7168 19.8878 22.2211 21.5971 23.1814C23.3064 24.1414 24.7398 25.5252 25.7599 27.1994" stroke="#0666B8" stroke-linecap="round" stroke-linejoin="round"/>
<path d="M16 30.8569C24.2054 30.8569 30.8571 24.2052 30.8571 15.9997C30.8571 7.79435 24.2054 1.14258 16 1.14258C7.79459 1.14258 1.14282 7.79435 1.14282 15.9997C1.14282 24.2052 7.79459 30.8569 16 30.8569Z" stroke="#0666B8" stroke-linecap="round" stroke-linejoin="round"/>
<path d="M25.9998 26.5H5.99976L7.49976 28L11.9998 30L15.9998 31L19.9998 30L22.4998 29.5L23.9998 28L25.9998 26.5Z" fill="#0666B8"/>
</g>
<defs>
<clipPath id="clip0_2502_77464">
<rect width="32" height="32" fill="white"/>
</clipPath>
</defs>
</svg>
